<svg width="14" height="14" viewBox="0 0 14 14" fill="none" xmlns="http://www.w3.org/2000/svg">
<path d="M10.5491 2.97929L10.5491 2.9793L10.5491 2.97929ZM10.5491 2.97929C10.605 2.94194 10.6708 2.922 10.738 2.922M10.5491 2.97929L10.738 2.922M10.868 3.57614L10.8681 3.5761C10.9302 3.55039 10.9833 3.50686 11.0207 3.45089L11.0207 3.45087C11.0581 3.39495 11.078 3.32921 11.078 3.262L10.868 3.57614ZM10.868 3.57614C10.806 3.60183 10.7377 3.60859 10.6717 3.59547L10.868 3.57614ZM7.00196 3.909L7.00097 3.909C6.38989 3.91019 5.79287 4.09248 5.28535 4.43285C4.77783 4.77322 4.38259 5.25639 4.14957 5.82129L4.14957 5.82129C3.91654 6.3862 3.85618 7.00751 3.97613 7.60671L3.97613 7.60671C4.09608 8.2059 4.39094 8.7561 4.82345 9.18775L4.82349 9.18778C5.256 9.61951 5.80676 9.91329 6.40615 10.032L6.40622 10.032C7.0056 10.1508 7.62678 10.0892 8.19128 9.85512C8.75571 9.62103 9.23813 9.22481 9.57747 8.71669C9.91684 8.20846 10.098 7.61106 10.098 7V6.99901C10.0988 6.59251 10.0192 6.18986 9.86382 5.81421L9.86378 5.81412C9.7085 5.43857 9.48036 5.09736 9.19266 4.81015L7.00196 3.909ZM7.00196 3.909C7.40847 3.90741 7.81128 3.98621 8.18725 4.14086C8.56318 4.2955 8.90485 4.52294 9.19261 4.8101L7.00196 3.909ZM10.738 2.922C10.8282 2.922 10.9146 2.95781 10.9784 3.02159L10.738 2.922ZM13.4581 4.12773L13.4583 4.136L13.4588 4.14426C13.4999 4.86957 13.5 5.09295 13.5 7C13.5 7.94779 13.4896 8.4788 13.4792 8.8643C13.4768 8.95188 13.4744 9.03282 13.4722 9.11011C13.4645 9.36951 13.4581 9.58782 13.458 9.87794C13.4451 10.4014 13.3469 10.9192 13.1672 11.411C13.017 11.8089 12.7809 12.1689 12.4757 12.4653L12.47 12.4709L12.4644 12.4766C12.1704 12.7809 11.8111 13.0144 11.4137 13.1592L11.4137 13.1592L11.4082 13.1613C10.9173 13.3469 10.3983 13.4472 9.87365 13.4581L9.86469 13.4583L9.85574 13.4588C9.13043 13.4999 8.90705 13.5 7 13.5C5.09295 13.5 4.86957 13.4999 4.14426 13.4588L4.13531 13.4583L4.12635 13.4581C3.60166 13.4472 3.08269 13.3469 2.59181 13.1613L2.58813 13.1599C2.19021 13.0131 1.83013 12.7791 1.53425 12.4752L1.52891 12.4697L1.52341 12.4644C1.21912 12.1704 0.985681 11.8112 0.840743 11.4137L0.840775 11.4137L0.8387 11.4082C0.653141 10.9173 0.552761 10.3983 0.541893 9.87364L0.541707 9.86469L0.541201 9.85574C0.500146 9.13043 0.5 8.90705 0.5 7C0.5 5.09295 0.500146 4.86957 0.541201 4.14426L0.541707 4.13531L0.541893 4.12635C0.552761 3.60167 0.653139 3.08269 0.838701 2.59179L0.838733 2.5918L0.840739 2.5863C0.985684 2.18884 1.21913 1.82955 1.5234 1.5356L1.52891 1.53028L1.53426 1.52478C1.83013 1.22087 2.1902 0.986932 2.58812 0.840074L2.58812 0.840088L2.59179 0.838701C3.08269 0.653139 3.60167 0.552761 4.12635 0.541893L4.13531 0.541707L4.14426 0.541201C4.86957 0.500146 5.09295 0.5 7 0.5C8.90705 0.5 9.13043 0.500146 9.85574 0.541201L9.86469 0.541707L9.87364 0.541893C10.3983 0.552761 10.9173 0.653141 11.4082 0.8387L11.4082 0.838733L11.4137 0.840743C11.8112 0.985681 12.1704 1.21912 12.4644 1.52341L12.4643 1.52354L12.4742 1.53329C12.7788 1.83147 13.0153 2.19195 13.1676 2.59004C13.3477 3.08328 13.4458 3.6027 13.4581 4.12773ZM12.9294 11.2743L12.9297 11.2735C13.1004 10.8061 13.191 10.3132 13.1978 9.81566C13.2331 9.10937 13.24 8.83424 13.24 7C13.24 5.16733 13.2331 4.8911 13.1979 4.18616C13.1945 3.67858 13.1037 3.17538 12.9297 2.69856L12.9272 2.6917L12.9245 2.68492C12.7833 2.33054 12.5671 2.01094 12.2906 1.74811C12.0099 1.44652 11.6624 1.21468 11.276 1.07125L11.2735 1.07034C10.8069 0.899918 10.3149 0.809286 9.81818 0.802193C9.11189 0.759999 8.82944 0.759999 7.02203 0.76H7C6.07515 0.76 5.54557 0.770557 5.1584 0.781188C5.06464 0.783763 4.98025 0.786304 4.90139 0.788678C4.65256 0.796169 4.45887 0.802 4.2 0.801985L4.19608 0.802015C3.68594 0.806015 3.18016 0.896518 2.70028 1.06969L2.68519 1.07513L2.67047 1.08154C2.31867 1.23464 2.00367 1.46098 1.74642 1.74532C1.45982 2.00311 1.23403 2.3215 1.08553 2.67752L1.0819 2.68623L1.0786 2.69506C0.90076 3.17124 0.807217 3.67472 0.802127 4.18292C0.759999 4.8884 0.759999 5.17151 0.76 6.97797V7C0.76 7.92485 0.770557 8.45443 0.781188 8.8416C0.783763 8.93536 0.786304 9.01975 0.788678 9.09861C0.796169 9.34744 0.802 9.54113 0.802 9.8V9.80784L0.802246 9.81567C0.818291 10.3275 0.923997 10.8325 1.11454 11.3077C1.24806 11.6781 1.464 12.0135 1.74608 12.2883C2.01044 12.5607 2.32766 12.7763 2.67838 12.9218L2.69404 12.9283L2.71011 12.9337C3.19537 13.0975 3.70501 13.1776 4.21718 13.1702C4.91809 13.212 5.20486 13.212 7.00597 13.212H7.028C8.86224 13.212 9.13737 13.2051 9.84366 13.1698C10.3412 13.163 10.8341 13.0724 11.3015 12.9017L11.3015 12.9017L11.3067 12.8998C11.6756 12.7604 12.01 12.543 12.2869 12.2622C12.5727 11.9855 12.7923 11.6478 12.9294 11.2743ZM5.42718 9.35389L5.4272 9.35391C5.89274 9.66493 6.44006 9.831 7 9.831C7.37178 9.831 7.7399 9.75777 8.08336 9.61552C8.42686 9.47325 8.73895 9.26469 9.00182 9.00182C9.26469 8.73895 9.47325 8.42686 9.61552 8.08336C9.75777 7.7399 9.831 7.37178 9.831 7C9.831 6.44006 9.66493 5.89274 9.35391 5.4272L9.35389 5.42718C9.04282 4.96162 8.60067 4.59877 8.08337 4.3845C7.56608 4.17022 6.99686 4.11416 6.44769 4.2234C5.89854 4.33264 5.3941 4.60226 4.99818 4.99818C4.60226 5.3941 4.33264 5.89854 4.2234 6.44769C4.11416 6.99686 4.17022 7.56608 4.3845 8.08337C4.59877 8.60067 4.96162 9.04282 5.42718 9.35389ZM10.4046 3.3284C10.3914 3.26237 10.3982 3.19396 10.4239 3.13184L10.4046 3.3284ZM10.6716 3.59546C10.6057 3.58235 10.5452 3.55 10.4975 3.50238L10.6716 3.59546Z" stroke="white"/>
</svg>
