<svg width="163" height="25" viewBox="0 0 163 25" fill="none" xmlns="http://www.w3.org/2000/svg">
<path d="M152.161 24.6961C149.722 24.6961 147.556 24.1731 145.664 23.127C143.795 22.0582 142.324 20.6028 141.253 18.7609C140.182 16.8961 139.646 14.7585 139.646 12.348C139.646 9.93756 140.182 7.81134 141.253 5.96936C142.324 4.10465 143.795 2.64926 145.664 1.6032C147.556 0.5344 149.722 0 152.161 0C153.62 0 154.965 0.216035 156.196 0.648103C157.426 1.08017 158.509 1.68279 159.444 2.45597C160.401 3.2064 161.199 4.07054 161.837 5.04838L158.008 7.43612C157.62 6.82213 157.107 6.27636 156.469 5.79881C155.854 5.32126 155.17 4.94604 154.417 4.67316C153.665 4.40027 152.913 4.26383 152.161 4.26383C150.656 4.26383 149.323 4.61631 148.16 5.32126C146.998 6.00347 146.086 6.9472 145.425 8.15244C144.764 9.35768 144.433 10.7562 144.433 12.348C144.433 13.9171 144.752 15.3157 145.39 16.5437C146.051 17.7716 146.975 18.7381 148.16 19.4431C149.345 20.1253 150.713 20.4664 152.263 20.4664C153.471 20.4664 154.543 20.2276 155.477 19.7501C156.435 19.2725 157.187 18.6017 157.734 17.7375C158.281 16.8734 158.555 15.8728 158.555 14.7358L163 14.0536C163 16.3049 162.533 18.2264 161.598 19.8183C160.686 21.4101 159.41 22.6267 157.768 23.4681C156.15 24.2868 154.281 24.6961 152.161 24.6961ZM152.947 15.1451V11.4953H163V14.3947L160.47 15.1451H152.947Z" fill="white"/>
<path d="M114.601 23.8774V0H119.491L131.185 16.032V0H135.835V23.8774H131.185L119.286 7.53845V23.8774H114.601Z" fill="white"/>
<path d="M104.717 23.8774V0H109.402V23.8774H104.717Z" fill="white"/>
<path d="M78.2707 23.8774V0H83.1603L94.8544 16.032V0H99.5047V23.8774H94.8544L82.9551 7.53845V23.8774H78.2707Z" fill="white"/>
<path d="M57 2L68.5 3.57143L68.75 13.7857L67.5 14.5L68 15.619L69 24H57V2Z" fill="#DC0000"/>
<path d="M55 24V0H63.8903C65.5771 0 67.0702 0.331429 68.3696 0.994287C69.6689 1.65714 70.6833 2.57143 71.4128 3.73714C72.1423 4.88 72.507 6.21714 72.507 7.74857C72.507 9.25714 72.1195 10.6057 71.3444 11.7943C70.5922 12.96 69.555 13.8743 68.2328 14.5371C66.9107 15.1771 65.4062 15.4971 63.7193 15.4971H59.6845V24H55ZM68.1644 24L62.6251 14.3657L66.2154 11.7943L73.4644 24H68.1644ZM59.6845 11.2114H63.9245C64.6311 11.2114 65.258 11.0629 65.8051 10.7657C66.375 10.4686 66.8195 10.0571 67.1386 9.53143C67.4806 9.00572 67.6515 8.41143 67.6515 7.74857C67.6515 6.72 67.2754 5.88571 66.5232 5.24571C65.7937 4.60571 64.8477 4.28571 63.6851 4.28571H59.6845V11.2114Z" fill="white"/>
<path d="M40.26 24.662C37.8436 24.662 35.7009 24.139 33.8316 23.0929C31.9852 22.0241 30.5377 20.5687 29.4891 18.7267C28.4405 16.862 27.9162 14.7358 27.9162 12.3481C27.9162 9.91483 28.4405 7.77722 29.4891 5.93525C30.5377 4.07054 31.9738 2.61515 33.7974 1.56909C35.6439 0.52303 37.7639 0 40.1574 0C42.5737 0 44.6937 0.5344 46.5174 1.6032C48.3638 2.64926 49.8113 4.10465 50.8599 5.96936C51.9085 7.81134 52.4328 9.93757 52.4328 12.3481C52.4328 14.7358 51.9085 16.862 50.8599 18.7267C49.8341 20.5687 48.398 22.0241 46.5515 23.0929C44.7279 24.139 42.6307 24.662 40.26 24.662ZM40.26 20.3982C41.7189 20.3982 42.9954 20.0571 44.0896 19.3748C45.2066 18.6699 46.0728 17.7148 46.6883 16.5095C47.3266 15.3043 47.6457 13.9171 47.6457 12.3481C47.6457 10.7562 47.3266 9.35768 46.6883 8.15244C46.05 6.9472 45.1724 6.00347 44.0554 5.32126C42.9384 4.61631 41.6391 4.26383 40.1574 4.26383C38.7213 4.26383 37.4333 4.61631 36.2935 5.32126C35.1766 6.00347 34.2989 6.9472 33.6607 8.15244C33.0224 9.35768 32.7032 10.7562 32.7032 12.3481C32.7032 13.9171 33.0224 15.3043 33.6607 16.5095C34.2989 17.7148 35.188 18.6699 36.3277 19.3748C37.4675 20.0571 38.7783 20.3982 40.26 20.3982Z" fill="white"/>
<path d="M0 23.8774V0H5.09481L12.0702 10.3014L19.0457 0H24.1063V23.8774H19.456V7.29967L12.0702 18.1469L4.68449 7.33379V23.8774H0Z" fill="white"/>
</svg>
