<svg width="10" height="16" viewBox="0 0 10 16" fill="none" xmlns="http://www.w3.org/2000/svg">
<path d="M5.57143 6.44444H9L8.61905 8H5.57143V15H4.04762V8H1V6.44444H4.04762V4.98844C4.04762 3.60167 4.18933 3.09844 4.45448 2.59133C4.71429 2.09029 5.11566 1.68056 5.60648 1.41533C6.10324 1.14467 6.59619 1 7.95467 1C8.35238 1 8.70133 1.03889 9 1.11667V2.55556H7.95467C6.94591 2.55556 6.63886 2.61622 6.32571 2.78733C6.0941 2.91333 5.92191 3.08911 5.79848 3.32556C5.63086 3.64522 5.57143 3.95867 5.57143 4.98844V6.44444Z" fill="white" stroke="white" stroke-width="0.8"/>
</svg>
