<svg width="14" height="13" viewBox="0 0 14 13" fill="none" xmlns="http://www.w3.org/2000/svg">
<path d="M5.9156 8.13109L2.19363 12.5H1.35907L5.67356 7.4342L5.93184 7.13095L5.69398 6.81143L0.99555 0.5H4.17703L7.08571 4.45046L7.45987 4.95863L7.86901 4.47817L11.2568 0.5H12.09L8.1019 5.18247L7.84501 5.48409L8.07992 5.80313L13.0109 12.5H9.93097L6.69725 8.15674L6.32252 7.65343L5.9156 8.13109ZM9.87134 11.9786L10.0213 12.18H10.2724H11.4619H12.4509L11.8646 11.3836L4.18608 0.954224L4.03621 0.750667H3.78343H2.50693H1.51126L2.10589 1.54927L9.87134 11.9786Z" fill="white" stroke="white"/>
</svg>
