<svg width="14" height="9" viewBox="0 0 14 9" fill="none" xmlns="http://www.w3.org/2000/svg">
<path d="M12.9571 1.03367L12.9571 1.03374L12.9642 1.04028C13.0747 1.14198 13.1822 1.35346 13.2637 1.60601C13.301 1.72149 13.3273 1.82766 13.3442 1.90483C13.3525 1.94313 13.3584 1.97354 13.3621 1.99348L13.3659 2.01496L13.3659 2.01503L13.3663 2.01836L13.3705 2.0508C13.3741 2.07964 13.3793 2.12252 13.3856 2.17744C13.3983 2.28734 13.4153 2.44508 13.4323 2.63457C13.4664 3.015 13.5 3.51688 13.5 4.01389V4.98361C13.5 5.48189 13.4664 5.98378 13.4323 6.36383C13.4153 6.55314 13.3983 6.71063 13.3857 6.82031C13.3793 6.87513 13.3741 6.91791 13.3705 6.94668L13.3663 6.97902L13.3659 6.98247L13.3659 6.98249L13.3621 7.00402C13.3584 7.02396 13.3525 7.05437 13.3442 7.09267C13.3273 7.16983 13.301 7.276 13.2637 7.39148C13.1822 7.64402 13.0747 7.85548 12.9642 7.95718L12.9641 7.95711L12.9571 7.96381C12.6084 8.29738 12.2429 8.3322 11.9459 8.36049C11.9155 8.36339 11.8858 8.36622 11.8569 8.36929C10.8921 8.43176 9.68202 8.46455 8.70707 8.48164C8.21885 8.4902 7.79151 8.49479 7.4863 8.49724C7.33371 8.49847 7.21171 8.49916 7.12796 8.49954L7.03198 8.49992L7.00731 8.49998L7.00157 8.5L6.99384 8.49993L6.96337 8.49966L6.8464 8.49855C6.745 8.49754 6.59882 8.49599 6.41986 8.49383C6.06188 8.4895 5.57308 8.48272 5.04951 8.4729C4.00702 8.45335 2.85171 8.42212 2.30311 8.37611C2.21636 8.36158 2.12895 8.35103 2.04154 8.34049C1.69392 8.29855 1.34628 8.2566 1.04011 7.9638L1.04015 7.96375L1.03424 7.95827C0.924464 7.85663 0.817414 7.64494 0.736113 7.39205C0.698949 7.27645 0.672718 7.17017 0.655874 7.09292C0.647515 7.05459 0.641627 7.02414 0.637969 7.00415L0.634161 6.98259L0.634155 6.98256L0.633707 6.97912L0.629569 6.94669C0.62595 6.91785 0.620705 6.87497 0.614374 6.82005C0.601704 6.71015 0.584725 6.55241 0.567727 6.36292C0.5336 5.98249 0.5 5.48062 0.5 4.98361V4.01389C0.5 3.51728 0.534234 3.01572 0.569015 2.63545C0.586338 2.44605 0.603642 2.28839 0.616552 2.17856C0.623003 2.12368 0.628347 2.08082 0.632033 2.05201L0.636247 2.01962L0.636901 2.01473L0.637096 2.01353L0.640832 1.99202C0.644424 1.97209 0.650217 1.94171 0.658468 1.90345C0.675095 1.82634 0.701055 1.72026 0.737999 1.60489C0.818823 1.35248 0.92568 1.14158 1.03579 1.04029L1.03585 1.04035L1.04282 1.03369C1.39166 0.700117 1.75722 0.665296 2.05414 0.637013C2.08464 0.634107 2.11442 0.631271 2.14338 0.628187C3.10775 0.564508 4.31682 0.532334 5.2911 0.516177C5.77889 0.508087 6.20581 0.504042 6.5107 0.50202C6.66313 0.501009 6.78499 0.500504 6.86865 0.500252L6.9645 0.500031L6.98913 0.500004L6.9953 0.5L6.99682 0.5L6.99718 0.5H6.99725L6.99727 0V0.5H7.00273V0L7.00275 0.5H7.00283L7.00318 0.5L7.0047 0.5L7.01087 0.500004L7.0355 0.500031L7.13136 0.500252C7.21501 0.500504 7.33688 0.501009 7.4893 0.50202C7.7942 0.504042 8.22112 0.508087 8.70891 0.516177C9.6832 0.532334 10.8923 0.564508 11.8566 0.628186C11.8856 0.631271 11.9154 0.634108 11.9459 0.637015C12.2428 0.6653 12.6084 0.700125 12.9571 1.03367ZM5.05352 6.16079V6.95102L5.76763 6.61262L9.54923 4.82062L10.4994 4.37036L9.55045 3.91753L5.76885 2.11303L5.05352 1.77169V2.56429V6.16079ZM0.636377 2.01796C0.636361 2.01806 0.636377 2.01796 0.636424 2.01766L0.636377 2.01796Z" fill="white" stroke="white"/>
</svg>
