<svg width="9" height="14" viewBox="0 0 9 14" fill="none" xmlns="http://www.w3.org/2000/svg">
<path d="M5.33203 5.72261H8.33203L7.9987 7.05594H5.33203V13.0559H3.9987V7.05594H1.33203V5.72261H3.9987V4.47461C3.9987 3.28594 4.1227 2.85461 4.3547 2.41994C4.58204 1.99048 4.93324 1.63928 5.3627 1.41194C5.79736 1.17994 6.2287 1.05594 7.41736 1.05594C7.76536 1.05594 8.0707 1.08927 8.33203 1.15594V2.38927H7.41736C6.5347 2.38927 6.26603 2.44127 5.99203 2.58794C5.78936 2.69594 5.6387 2.84661 5.5307 3.04927C5.38403 3.32327 5.33203 3.59194 5.33203 4.47461V5.72261Z" fill="black" stroke="black" stroke-width="0.8"/>
</svg>
