<svg width="13" height="13" viewBox="0 0 13 13" fill="none" xmlns="http://www.w3.org/2000/svg">
<path d="M10.0129 2.1089C9.86823 2.1089 9.72685 2.15178 9.6066 2.23214C9.48635 2.31248 9.39259 2.42669 9.33726 2.5603C9.28193 2.69393 9.26746 2.84096 9.29566 2.9828C9.32385 3.12465 9.39348 3.25495 9.49578 3.35722C9.59807 3.45948 9.72831 3.52913 9.87018 3.55735C10.012 3.58556 10.1591 3.57108 10.2927 3.51573C10.4263 3.46038 10.5405 3.36666 10.6208 3.2464C10.7012 3.12615 10.7441 2.98477 10.7441 2.84015C10.7441 2.6462 10.6671 2.46021 10.5299 2.32307C10.3928 2.18594 10.2068 2.1089 10.0129 2.1089ZM12.816 3.58358C12.8041 3.07798 12.7095 2.57775 12.5357 2.1028C12.3807 1.69643 12.1396 1.32846 11.8288 1.02421C11.527 0.711858 11.1582 0.47222 10.7502 0.323426C10.2765 0.144369 9.77568 0.0475072 9.26941 0.0370203C8.62348 0.000457776 8.41629 0.000457764 6.75879 0.000457764C5.10129 0.000457764 4.8941 0.000457776 4.24816 0.0370203C3.74186 0.0475072 3.24108 0.144369 2.76738 0.323426C2.36013 0.473731 1.99161 0.713158 1.68879 1.02421C1.37644 1.32595 1.1368 1.69479 0.988008 2.1028C0.80895 2.5765 0.712089 3.07728 0.701602 3.58358C0.665039 4.22952 0.665039 4.43671 0.665039 6.09421C0.665039 7.75171 0.665039 7.9589 0.701602 8.60483C0.712089 9.1111 0.80895 9.61193 0.988008 10.0856C1.1368 10.4937 1.37644 10.8624 1.68879 11.1642C1.99161 11.4752 2.36013 11.7147 2.76738 11.865C3.24108 12.0441 3.74186 12.1409 4.24816 12.1514C4.8941 12.188 5.10129 12.188 6.75879 12.188C8.41629 12.188 8.62348 12.188 9.26941 12.1514C9.77568 12.1409 10.2765 12.0441 10.7502 11.865C11.1582 11.7162 11.527 11.4765 11.8288 11.1642C12.141 10.8611 12.3823 10.4928 12.5357 10.0856C12.7095 9.61063 12.8041 9.11045 12.816 8.60483C12.816 7.9589 12.8525 7.75171 12.8525 6.09421C12.8525 4.43671 12.8525 4.22952 12.816 3.58358ZM11.7191 8.53171C11.7146 8.91854 11.6446 9.3018 11.5119 9.66515C11.4146 9.93035 11.2583 10.17 11.0549 10.3659C10.8572 10.5673 10.6181 10.7233 10.3541 10.823C9.99075 10.9556 9.6075 11.0257 9.22066 11.0301C8.61129 11.0606 8.38582 11.0667 6.78316 11.0667C5.18051 11.0667 4.95504 11.0667 4.34566 11.0301C3.94402 11.0377 3.54409 10.9758 3.16348 10.8473C2.91107 10.7426 2.6829 10.587 2.49316 10.3903C2.29091 10.1946 2.13658 9.95472 2.04223 9.68952C1.89345 9.32097 1.81093 8.92902 1.79848 8.53171C1.79848 7.92233 1.76191 7.69686 1.76191 6.09421C1.76191 4.49155 1.76191 4.26608 1.79848 3.65671C1.80121 3.26126 1.8734 2.86936 2.01176 2.4989C2.11904 2.24168 2.2837 2.0124 2.49316 1.82858C2.6783 1.61906 2.90711 1.45266 3.16348 1.34108C3.53492 1.20704 3.92641 1.13699 4.32129 1.1339C4.93066 1.1339 5.15613 1.09733 6.75879 1.09733C8.36145 1.09733 8.58691 1.09733 9.19629 1.1339C9.58312 1.13833 9.96638 1.20839 10.3297 1.34108C10.6066 1.44386 10.8552 1.61095 11.0549 1.82858C11.2546 2.01577 11.4106 2.24462 11.5119 2.4989C11.6474 2.86996 11.7175 3.26169 11.7191 3.65671C11.7496 4.26608 11.7557 4.49155 11.7557 6.09421C11.7557 7.69686 11.7496 7.92233 11.7191 8.53171ZM6.75879 2.96811C6.14077 2.96932 5.53697 3.15368 5.02369 3.49791C4.51041 3.84214 4.11067 4.3308 3.87501 4.90212C3.63933 5.47344 3.57829 6.1018 3.6996 6.70781C3.82091 7.3138 4.11912 7.87025 4.55656 8.30681C4.99399 8.74345 5.55102 9.04058 6.15725 9.16066C6.76349 9.28083 7.39173 9.21851 7.96259 8.98175C8.53345 8.74499 9.02136 8.34426 9.36456 7.83036C9.70776 7.31639 9.89098 6.71223 9.89098 6.09421C9.89179 5.68294 9.81127 5.27558 9.65405 4.89554C9.49691 4.5155 9.26608 4.1703 8.97505 3.87977C8.68393 3.58925 8.33826 3.35914 7.95792 3.20268C7.57757 3.04623 7.17005 2.96651 6.75879 2.96811ZM6.75879 8.12343C6.35745 8.12343 5.96512 8.0044 5.63141 7.78145C5.29771 7.55847 5.03762 7.24155 4.88403 6.87076C4.73045 6.49996 4.69026 6.09196 4.76856 5.69833C4.84686 5.30469 5.04012 4.94312 5.32391 4.65933C5.6077 4.37554 5.96927 4.18228 6.36291 4.10398C6.75654 4.02568 7.16454 4.06587 7.53534 4.21945C7.90613 4.37304 8.22305 4.63313 8.44603 4.96683C8.66898 5.30054 8.78801 5.69287 8.78801 6.09421C8.78801 6.36069 8.73552 6.62456 8.63355 6.87076C8.53158 7.11695 8.38209 7.34066 8.19366 7.52908C8.00524 7.71751 7.78153 7.867 7.53534 7.96897C7.28914 8.07094 7.02527 8.12343 6.75879 8.12343Z" fill="black"/>
</svg>
