<svg width="17" height="16" viewBox="0 0 17 16" fill="none" xmlns="http://www.w3.org/2000/svg">
<path d="M12.8181 3.07126C12.6349 3.07126 12.4558 3.12558 12.3035 3.22737C12.1512 3.32914 12.0324 3.4738 11.9623 3.64305C11.8923 3.8123 11.8739 3.99854 11.9097 4.17821C11.9454 4.35788 12.0336 4.52293 12.1631 4.65247C12.2927 4.782 12.4577 4.87022 12.6374 4.90597C12.8171 4.9417 13.0034 4.92336 13.1725 4.85325C13.3418 4.78315 13.4864 4.66443 13.5882 4.5121C13.69 4.35979 13.7444 4.1807 13.7444 3.99751C13.7444 3.75185 13.6468 3.51626 13.4731 3.34255C13.2993 3.16885 13.0638 3.07126 12.8181 3.07126ZM16.3687 4.9392C16.3537 4.29877 16.2338 3.66514 16.0137 3.06354C15.8174 2.5488 15.5119 2.08271 15.1183 1.69732C14.7361 1.30168 14.2689 0.998139 13.7521 0.809667C13.1521 0.582861 12.5177 0.46017 11.8764 0.446886C11.0582 0.400574 10.7958 0.400574 8.69629 0.400574C6.59679 0.400574 6.33435 0.400574 5.51616 0.446886C4.87485 0.46017 4.24052 0.582861 3.64051 0.809667C3.12465 1.00005 2.65786 1.30333 2.27429 1.69732C1.87865 2.07954 1.5751 2.54673 1.38663 3.06354C1.15983 3.66356 1.03714 4.29788 1.02385 4.9392C0.977539 5.75739 0.977539 6.01982 0.977539 8.11932C0.977539 10.2188 0.977539 10.4813 1.02385 11.2994C1.03714 11.9407 1.15983 12.5751 1.38663 13.1751C1.5751 13.692 1.87865 14.1591 2.27429 14.5413C2.65786 14.9353 3.12465 15.2386 3.64051 15.429C4.24052 15.6558 4.87485 15.7785 5.51616 15.7918C6.33435 15.8381 6.59679 15.8381 8.69629 15.8381C10.7958 15.8381 11.0582 15.8381 11.8764 15.7918C12.5177 15.7785 13.1521 15.6558 13.7521 15.429C14.2689 15.2405 14.7361 14.9369 15.1183 14.5413C15.5137 14.1573 15.8195 13.6908 16.0137 13.1751C16.2338 12.5735 16.3537 11.9399 16.3687 11.2994C16.3687 10.4813 16.415 10.2188 16.415 8.11932C16.415 6.01982 16.415 5.75739 16.3687 4.9392ZM14.9794 11.2068C14.9737 11.6968 14.885 12.1823 14.7169 12.6425C14.5936 12.9784 14.3957 13.2819 14.138 13.5302C13.8876 13.7853 13.5847 13.9828 13.2504 14.1091C12.7901 14.2771 12.3047 14.3659 11.8147 14.3715C11.0428 14.4101 10.7572 14.4178 8.72716 14.4178C6.69713 14.4178 6.41154 14.4178 5.63966 14.3715C5.13092 14.3811 4.62434 14.3027 4.14223 14.1399C3.82251 14.0073 3.5335 13.8102 3.29316 13.561C3.03697 13.3131 2.84149 13.0093 2.72198 12.6734C2.53353 12.2066 2.429 11.7101 2.41323 11.2068C2.41323 10.4349 2.36691 10.1494 2.36691 8.11932C2.36691 6.08929 2.36691 5.8037 2.41323 5.03182C2.41668 4.53092 2.50813 4.03452 2.68338 3.56526C2.81927 3.23946 3.02784 2.94904 3.29316 2.7162C3.52767 2.45081 3.81749 2.24002 4.14223 2.0987C4.61272 1.92892 5.10861 1.84018 5.60879 1.83626C6.38066 1.83626 6.66626 1.78995 8.69629 1.78995C10.7263 1.78995 11.0119 1.78995 11.7838 1.83626C12.2738 1.84188 12.7592 1.93062 13.2195 2.0987C13.5702 2.22888 13.885 2.44053 14.138 2.7162C14.391 2.9533 14.5886 3.24318 14.7169 3.56526C14.8885 4.03528 14.9773 4.53147 14.9794 5.03182C15.0179 5.8037 15.0257 6.08929 15.0257 8.11932C15.0257 10.1494 15.0179 10.4349 14.9794 11.2068ZM8.69629 4.15961C7.91346 4.16113 7.14865 4.39466 6.49849 4.83068C5.84834 5.26671 5.34201 5.88567 5.0435 6.60934C4.74498 7.33302 4.66766 8.12895 4.82132 8.89655C4.97498 9.66414 5.35271 10.369 5.90679 10.922C6.46088 11.475 7.16644 11.8514 7.93434 12.0035C8.70224 12.1557 9.49801 12.0768 10.2211 11.7769C10.9442 11.477 11.5622 10.9694 11.9969 10.3184C12.4317 9.66742 12.6637 8.90215 12.6637 8.11932C12.6648 7.59839 12.5628 7.0824 12.3636 6.60102C12.1646 6.11963 11.8722 5.68237 11.5035 5.31437C11.1348 4.94637 10.6969 4.6549 10.2152 4.45673C9.73341 4.25855 9.21722 4.15757 8.69629 4.15961ZM8.69629 10.6897C8.18792 10.6897 7.69098 10.5389 7.26828 10.2565C6.84559 9.97406 6.51614 9.57262 6.3216 9.10295C6.12706 8.63328 6.07615 8.11647 6.17533 7.61787C6.27452 7.11927 6.51931 6.66128 6.87878 6.30182C7.23825 5.94235 7.69624 5.69755 8.19484 5.59837C8.69344 5.49919 9.21025 5.55009 9.67992 5.74463C10.1496 5.93918 10.551 6.26863 10.8335 6.69131C11.1159 7.11401 11.2666 7.61096 11.2666 8.11932C11.2666 8.45687 11.2001 8.7911 11.071 9.10295C10.9418 9.4148 10.7525 9.69816 10.5138 9.93683C10.2751 10.1755 9.99176 10.3649 9.67992 10.494C9.36807 10.6232 9.03384 10.6897 8.69629 10.6897Z" fill="black"/>
</svg>
